<svg width="413" height="117" viewBox="0 0 413 117" fill="none" xmlns="http://www.w3.org/2000/svg">
<path d="M357.551 45.2091V44.6491H357.607C358.951 44.6491 360.034 44.2384 360.855 43.4171C361.676 42.5957 362.087 41.5131 362.087 40.1691V21.8011C362.087 20.3824 361.788 19.2811 361.191 18.4971C360.631 17.7131 359.418 17.3211 357.551 17.3211V16.7611H363.095C364.626 16.7611 365.802 16.6864 366.623 16.5371C367.482 16.3877 368.116 16.2011 368.527 15.9771C368.938 15.7157 369.236 15.4544 369.423 15.1931H369.983L370.039 22.4731C371.01 20.5317 372.484 18.9637 374.463 17.7691C376.442 16.5744 378.532 15.9771 380.735 15.9771C382.863 15.9771 384.636 16.5744 386.055 17.7691C387.474 18.9637 388.388 20.5691 388.799 22.5851C389.844 20.5691 391.337 18.9637 393.279 17.7691C395.258 16.5744 397.385 15.9771 399.663 15.9771C402.164 15.9771 404.161 16.7984 405.655 18.4411C407.186 20.0837 407.951 22.2491 407.951 24.9371V40.1691C407.951 41.5131 408.362 42.5957 409.183 43.4171C410.004 44.2384 411.087 44.6491 412.431 44.6491H412.487V45.2091H395.407V44.6491H395.463C396.807 44.6491 397.89 44.2384 398.711 43.4171C399.532 42.5957 399.943 41.5131 399.943 40.1691V24.3771C399.943 22.5104 399.57 21.0171 398.823 19.8971C398.076 18.7771 397.106 18.2171 395.911 18.2171C394.754 18.2171 393.54 18.7397 392.271 19.7851C391.001 20.7931 389.9 22.1184 388.967 23.7611C389.004 23.8357 389.023 23.9291 389.023 24.0411C389.023 24.1531 389.023 24.2464 389.023 24.3211V40.1691C389.023 41.5131 389.434 42.5957 390.255 43.4171C391.076 44.2384 392.159 44.6491 393.503 44.6491H393.559V45.2091H376.479V44.6491H376.535C377.879 44.6491 378.962 44.2384 379.783 43.4171C380.604 42.5957 381.015 41.5131 381.015 40.1691V24.3771C381.015 22.5104 380.642 21.0171 379.895 19.8971C379.186 18.7771 378.234 18.2171 377.039 18.2171C375.882 18.2171 374.668 18.7211 373.399 19.7291C372.167 20.6997 371.084 22.0251 370.151 23.7051V40.1691C370.151 41.5131 370.562 42.5957 371.383 43.4171C372.204 44.2384 373.287 44.6491 374.631 44.6491H374.687V45.2091H357.551Z" fill="white"></path>
<path d="M345.774 46.7771L345.718 39.5531C344.747 41.4571 343.272 43.0064 341.294 44.2011C339.315 45.3958 337.224 45.9931 335.022 45.9931C332.52 45.9931 330.504 45.1717 328.974 43.5291C327.48 41.8864 326.734 39.7211 326.734 37.0331V21.8011C326.734 20.3824 326.454 19.2811 325.894 18.4971C325.334 17.7131 324.102 17.3211 322.198 17.3211V16.7611H327.854C329.758 16.7611 331.214 16.5557 332.222 16.1451C333.155 15.7344 333.808 15.2304 334.182 14.6331H334.742V37.5931C334.742 39.4597 335.115 40.9531 335.862 42.0731C336.608 43.1931 337.579 43.7531 338.774 43.7531C339.931 43.7531 341.126 43.2677 342.358 42.2971C343.59 41.2891 344.672 39.9451 345.606 38.2651V21.8011C345.606 20.4571 345.27 19.3744 344.598 18.5531C343.926 17.7317 342.768 17.3211 341.126 17.3211V16.7611H346.782C348.686 16.7611 350.142 16.5557 351.15 16.1451C352.12 15.7344 352.792 15.2304 353.166 14.6331H353.726L353.67 40.1691C353.67 41.5131 354.08 42.6144 354.902 43.4731C355.723 44.2944 356.806 44.7051 358.15 44.7051V45.2091H352.606C351.635 45.2091 350.776 45.2277 350.03 45.2651C349.283 45.3397 348.667 45.4144 348.182 45.4891C347.174 45.7131 346.464 46.1424 346.054 46.7771H345.774Z" fill="white"></path>
<path d="M311.053 45.9931C310.082 45.9931 309.354 45.9557 308.869 45.8811C308.384 45.8064 307.917 45.7131 307.469 45.6011C307.058 45.4891 306.498 45.3957 305.789 45.3211C305.08 45.2464 303.997 45.2091 302.541 45.2091L301.197 34.6811H301.925C302.522 38.1904 303.642 40.8411 305.285 42.6331C306.928 44.3877 308.72 45.2651 310.661 45.2651C312.565 45.2651 314.002 44.8731 314.973 44.0891C315.981 43.3051 316.485 42.2411 316.485 40.8971C316.485 40.0384 316.261 39.2917 315.813 38.6571C315.402 37.9851 314.674 37.3131 313.629 36.6411C312.584 35.9318 311.165 35.0918 309.373 34.1211L307.749 33.2251C305.696 32.0677 304.165 30.7238 303.157 29.1931C302.186 27.6251 301.701 25.9451 301.701 24.1531C301.701 21.6144 302.616 19.6171 304.445 18.1611C306.312 16.7051 308.794 15.9771 311.893 15.9771C312.677 15.9771 313.312 16.0144 313.797 16.0891C314.282 16.1637 314.749 16.2571 315.197 16.3691C315.645 16.4811 316.205 16.5744 316.877 16.6491C317.549 16.7237 318.445 16.7611 319.565 16.7611L320.349 25.7771H319.677C319.453 24.0224 318.949 22.4731 318.165 21.1291C317.418 19.7477 316.522 18.6838 315.477 17.9371C314.432 17.1531 313.368 16.7611 312.285 16.7611C310.866 16.7611 309.728 17.1344 308.869 17.8811C308.048 18.6277 307.637 19.6731 307.637 21.0171C307.637 22.0251 307.954 22.9584 308.589 23.8171C309.261 24.6384 310.53 25.5344 312.397 26.5051L314.077 27.3451C316.69 28.6891 318.594 30.0891 319.789 31.5451C320.984 33.0011 321.581 34.8678 321.581 37.1451C321.581 42.9691 318.072 45.9184 311.053 45.9931Z" fill="white"></path>
<path d="M265.153 56.9691V56.4091H265.209C266.553 56.4091 267.636 55.9984 268.457 55.1771C269.279 54.3558 269.689 53.2731 269.689 51.9291V21.8011C269.652 20.1584 269.297 19.0011 268.625 18.3291C267.953 17.6571 266.796 17.3211 265.153 17.3211V16.7611H270.697C272.9 16.7611 274.412 16.5557 275.233 16.1451C276.055 15.7344 276.652 15.2304 277.025 14.6331H277.585L277.641 21.8011C278.5 20.1211 279.807 18.7211 281.561 17.6011C283.316 16.4811 285.164 15.9211 287.105 15.9211C289.196 15.9211 291.044 16.5557 292.649 17.8251C294.255 19.0944 295.505 20.8304 296.401 23.0331C297.335 25.1984 297.801 27.6997 297.801 30.5371C297.801 33.6731 297.241 36.3984 296.121 38.7131C295.001 41.0278 293.415 42.8198 291.361 44.0891C289.345 45.3584 286.937 45.9931 284.137 45.9931C282.607 45.9931 281.356 45.7504 280.385 45.2651C279.415 44.8171 278.537 44.0518 277.753 42.9691V51.9291C277.753 53.2731 278.164 54.3558 278.985 55.1771C279.807 55.9984 280.889 56.4091 282.233 56.4091H282.289V56.9691H265.153ZM282.961 45.0411C284.977 45.0411 286.508 43.7904 287.553 41.2891C288.561 38.7504 289.065 35.1104 289.065 30.3691C289.065 22.2304 287.423 18.1611 284.137 18.1611C282.868 18.1611 281.617 18.6651 280.385 19.6731C279.153 20.6811 278.276 21.9131 277.753 23.3691V36.4171C277.753 39.1051 278.22 41.2144 279.153 42.7451C280.087 44.2757 281.356 45.0411 282.961 45.0411Z" fill="white"></path>
<path d="M249.872 45.2091V44.6491H249.928C251.272 44.6491 252.355 44.2384 253.176 43.4171C253.998 42.5957 254.408 41.5131 254.408 40.1691V21.8011C254.408 20.3824 254.11 19.2811 253.512 18.4971C252.952 17.7131 251.739 17.3211 249.872 17.3211V16.7611H255.584C257.488 16.7611 258.944 16.5557 259.952 16.1451C260.886 15.7344 261.539 15.2304 261.912 14.6331H262.472V40.1691C262.472 41.5131 262.883 42.5957 263.704 43.4171C264.526 44.2384 265.608 44.6491 266.952 44.6491H267.008V45.2091H249.872ZM258.384 11.1051C257.04 11.1051 255.92 10.6757 255.024 9.81708C254.166 8.92108 253.736 7.80108 253.736 6.45708C253.736 5.11308 254.166 4.01175 255.024 3.15308C255.92 2.25708 257.04 1.80908 258.384 1.80908C259.691 1.80908 260.774 2.25708 261.632 3.15308C262.528 4.04908 262.976 5.15041 262.976 6.45708C262.976 7.76375 262.528 8.86508 261.632 9.76108C260.774 10.6571 259.691 11.1051 258.384 11.1051Z" fill="white"></path>
<path d="M233.805 45.9931C230.744 45.9931 228.056 45.3771 225.741 44.1451C223.464 42.9131 221.691 41.1771 220.421 38.9371C219.152 36.6971 218.517 34.0464 218.517 30.9851C218.517 27.9237 219.152 25.2731 220.421 23.0331C221.691 20.7931 223.464 19.0571 225.741 17.8251C228.056 16.5931 230.744 15.9771 233.805 15.9771C236.867 15.9771 239.536 16.5931 241.813 17.8251C244.091 19.0571 245.864 20.7931 247.133 23.0331C248.403 25.2731 249.037 27.9237 249.037 30.9851C249.037 34.0464 248.403 36.6971 247.133 38.9371C245.864 41.1771 244.091 42.9131 241.813 44.1451C239.536 45.3771 236.867 45.9931 233.805 45.9931ZM233.749 45.2651C235.056 45.2651 236.176 44.6118 237.109 43.3051C238.043 41.9984 238.771 40.2624 239.293 38.0971C239.816 35.8944 240.077 33.5051 240.077 30.9291C240.077 28.1291 239.797 25.6651 239.237 23.5371C238.715 21.3717 237.968 19.6917 236.997 18.4971C236.064 17.2651 235 16.6491 233.805 16.6491C232.536 16.6491 231.416 17.3024 230.445 18.6091C229.512 19.9157 228.784 21.6517 228.261 23.8171C227.739 25.9824 227.477 28.3531 227.477 30.9291C227.477 33.7664 227.757 36.2677 228.317 38.4331C228.877 40.5984 229.624 42.2784 230.557 43.4731C231.528 44.6678 232.592 45.2651 233.749 45.2651Z" fill="white"></path>
<path d="M203.496 57.7531C199.539 57.7531 196.328 57.2118 193.864 56.1291C191.437 55.0837 190.224 53.7024 190.224 51.9851C190.224 50.6784 190.84 49.5024 192.072 48.4571C193.341 47.4491 195.059 46.6651 197.224 46.1051C193.715 45.2091 191.96 43.6224 191.96 41.3451C191.96 40.1131 192.445 38.9744 193.416 37.9291C194.387 36.8464 195.749 35.9878 197.504 35.3531C195.637 34.5317 194.181 33.3371 193.136 31.7691C192.128 30.2011 191.624 28.3531 191.624 26.2251C191.624 23.1264 192.688 20.6437 194.816 18.7771C196.981 16.9104 199.875 15.9771 203.496 15.9771C205.213 15.9771 206.893 16.2384 208.536 16.7611H218.84L218.28 17.7691H210.664C212.157 18.6278 213.296 19.7851 214.08 21.2411C214.901 22.6597 215.312 24.3211 215.312 26.2251C215.312 29.3237 214.248 31.8251 212.12 33.7291C210.029 35.5958 207.155 36.5291 203.496 36.5291C201.48 36.5291 199.707 36.2304 198.176 35.6331C196.981 36.2677 196.384 37.0144 196.384 37.8731C196.384 38.6197 196.907 39.1237 197.952 39.3851C198.475 39.5344 199.221 39.6651 200.192 39.7771C201.163 39.8891 202.339 39.9637 203.72 40.0011L205.68 40.1131C209.973 40.2624 213.277 41.0838 215.592 42.5771C217.944 44.0704 219.12 46.1051 219.12 48.6811C219.12 51.5558 217.739 53.7771 214.976 55.3451C212.213 56.9504 208.387 57.7531 203.496 57.7531ZM203.44 35.8571C204.597 35.8571 205.549 34.9797 206.296 33.2251C206.968 31.4704 207.304 29.1371 207.304 26.2251C207.304 23.2757 206.968 20.9424 206.296 19.2251C205.587 17.5451 204.653 16.7051 203.496 16.7051C202.301 16.7051 201.368 17.5451 200.696 19.2251C200.024 20.9424 199.688 23.2757 199.688 26.2251C199.688 29.1744 200.024 31.5264 200.696 33.2811C201.368 34.9984 202.283 35.8571 203.44 35.8571ZM204.112 57.0251C205.829 57.0251 207.416 56.7637 208.872 56.2411C210.328 55.7557 211.485 55.0651 212.344 54.1691C213.24 53.2731 213.688 52.2464 213.688 51.0891C213.688 49.8197 213.035 48.8117 211.728 48.0651C210.347 47.3557 208.237 46.9824 205.4 46.9451L203.44 46.8331C202.357 46.7957 201.349 46.7211 200.416 46.6091C199.52 46.5344 198.717 46.4224 198.008 46.2731C197.224 46.5344 196.645 47.0571 196.272 47.8411C195.899 48.6251 195.712 49.5584 195.712 50.6411C195.712 52.5824 196.44 54.1318 197.896 55.2891C199.352 56.4464 201.424 57.0251 204.112 57.0251Z" fill="white"></path>
<path d="M173.157 45.9931C170.096 45.9931 167.408 45.3771 165.093 44.1451C162.816 42.9131 161.042 41.1771 159.773 38.9371C158.504 36.6971 157.869 34.0464 157.869 30.9851C157.869 27.9237 158.504 25.2731 159.773 23.0331C161.042 20.7931 162.816 19.0571 165.093 17.8251C167.408 16.5931 170.096 15.9771 173.157 15.9771C176.218 15.9771 178.888 16.5931 181.165 17.8251C183.442 19.0571 185.216 20.7931 186.485 23.0331C187.754 25.2731 188.389 27.9237 188.389 30.9851C188.389 34.0464 187.754 36.6971 186.485 38.9371C185.216 41.1771 183.442 42.9131 181.165 44.1451C178.888 45.3771 176.218 45.9931 173.157 45.9931ZM173.101 45.2651C174.408 45.2651 175.528 44.6118 176.461 43.3051C177.394 41.9984 178.122 40.2624 178.645 38.0971C179.168 35.8944 179.429 33.5051 179.429 30.9291C179.429 28.1291 179.149 25.6651 178.589 23.5371C178.066 21.3717 177.32 19.6917 176.349 18.4971C175.416 17.2651 174.352 16.6491 173.157 16.6491C171.888 16.6491 170.768 17.3024 169.797 18.6091C168.864 19.9157 168.136 21.6517 167.613 23.8171C167.09 25.9824 166.829 28.3531 166.829 30.9291C166.829 33.7664 167.109 36.2677 167.669 38.4331C168.229 40.5984 168.976 42.2784 169.909 43.4731C170.88 44.6678 171.944 45.2651 173.101 45.2651Z" fill="white"></path>
<path d="M124.301 45.2091V44.6491H124.357C125.701 44.6491 126.783 44.2944 127.605 43.5851C128.426 42.8758 128.837 41.8491 128.837 40.5051V8.24908C128.837 6.90508 128.426 5.82241 127.605 5.00108C126.783 4.17975 125.701 3.76908 124.357 3.76908H124.301V3.20908H142.165V3.76908H141.941C140.597 3.76908 139.514 4.17975 138.693 5.00108C137.871 5.82241 137.461 6.90508 137.461 8.24908V40.7291C137.461 41.9238 137.741 42.8571 138.301 43.5291C138.898 44.1637 139.925 44.4811 141.381 44.4811H142.557C145.879 44.4811 148.679 43.4544 150.957 41.4011C153.234 39.3478 154.671 36.4544 155.269 32.7211H155.829L154.149 45.2091H124.301Z" fill="white"></path>
<path d="M356.465 116.753C354.934 116.753 353.46 116.454 352.041 115.857L354.225 109.305C355.158 109.678 356.166 109.996 357.249 110.257C358.369 110.518 359.489 110.649 360.609 110.649C362.028 110.649 363.353 110.35 364.585 109.753C365.854 109.193 366.806 108.129 367.441 106.561L368.057 105.049L356.969 79.3451C356.596 78.4491 356.11 77.7398 355.513 77.2171C354.878 76.6571 354.02 76.3584 352.937 76.3211V75.7611H369.121V76.3211C368.113 76.4331 367.329 76.7878 366.769 77.3851C366.246 77.9824 365.985 78.7478 365.985 79.6811C365.985 80.5024 366.172 81.3424 366.545 82.2011L372.201 95.4731L377.857 82.2011C378.23 81.3424 378.417 80.5024 378.417 79.6811C378.417 78.7478 378.137 77.9824 377.577 77.3851C377.054 76.7878 376.27 76.4331 375.225 76.3211V75.7611H382.953V76.3211C382.094 76.5078 381.366 77.0678 380.769 78.0011C380.172 78.8971 379.537 80.1291 378.865 81.6971L367.441 108.241C366.246 111.004 364.697 113.113 362.793 114.569C360.889 116.025 358.78 116.753 356.465 116.753Z" fill="#AAAAAA"></path>
<path d="M345.742 104.993C343.8 104.993 342.214 104.377 340.982 103.145C339.75 101.913 339.134 100.308 339.134 98.3291V76.7691H334.374V76.0411C336.95 75.8544 339.246 75.0331 341.262 73.5771C343.315 72.1211 344.995 70.1611 346.302 67.6971H347.198V75.7611H354.646L354.086 76.7691H347.198V97.0971C347.198 100.084 348.206 101.577 350.222 101.577C350.894 101.577 351.659 101.372 352.518 100.961C353.414 100.55 354.254 100.009 355.038 99.3371V99.8971C353.806 101.465 352.35 102.716 350.67 103.649C348.99 104.545 347.347 104.993 345.742 104.993Z" fill="#AAAAAA"></path>
<path d="M318.177 104.209V103.649H318.233C319.577 103.649 320.66 103.238 321.481 102.417C322.302 101.596 322.713 100.513 322.713 99.1691V80.8011C322.713 79.3824 322.414 78.2811 321.817 77.4971C321.257 76.7131 320.044 76.3211 318.177 76.3211V75.7611H323.889C325.793 75.7611 327.249 75.5557 328.257 75.1451C329.19 74.7344 329.844 74.2304 330.217 73.6331H330.777V99.1691C330.777 100.513 331.188 101.596 332.009 102.417C332.83 103.238 333.913 103.649 335.257 103.649H335.313V104.209H318.177ZM326.689 70.1051C325.345 70.1051 324.225 69.6757 323.329 68.8171C322.47 67.9211 322.041 66.8011 322.041 65.4571C322.041 64.1131 322.47 63.0117 323.329 62.1531C324.225 61.2571 325.345 60.8091 326.689 60.8091C327.996 60.8091 329.078 61.2571 329.937 62.1531C330.833 63.0491 331.281 64.1504 331.281 65.4571C331.281 66.7637 330.833 67.8651 329.937 68.7611C329.078 69.6571 327.996 70.1051 326.689 70.1051Z" fill="#AAAAAA"></path>
<path d="M306.733 104.993C305.762 104.993 305.034 104.956 304.549 104.881C304.063 104.806 303.597 104.713 303.149 104.601C302.738 104.489 302.178 104.396 301.469 104.321C300.759 104.246 299.677 104.209 298.221 104.209L296.877 93.6811H297.605C298.202 97.1904 299.322 99.8411 300.965 101.633C302.607 103.388 304.399 104.265 306.341 104.265C308.245 104.265 309.682 103.873 310.653 103.089C311.661 102.305 312.165 101.241 312.165 99.8971C312.165 99.0384 311.941 98.2917 311.493 97.6571C311.082 96.9851 310.354 96.3131 309.309 95.6411C308.263 94.9318 306.845 94.0917 305.053 93.1211L303.429 92.2251C301.375 91.0677 299.845 89.7237 298.837 88.1931C297.866 86.6251 297.381 84.9451 297.381 83.1531C297.381 80.6144 298.295 78.6171 300.125 77.1611C301.991 75.7051 304.474 74.9771 307.573 74.9771C308.357 74.9771 308.991 75.0144 309.477 75.0891C309.962 75.1637 310.429 75.2571 310.877 75.3691C311.325 75.4811 311.885 75.5744 312.557 75.6491C313.229 75.7237 314.125 75.7611 315.245 75.7611L316.029 84.7771H315.357C315.133 83.0224 314.629 81.4731 313.845 80.1291C313.098 78.7477 312.202 77.6837 311.157 76.9371C310.111 76.1531 309.047 75.7611 307.965 75.7611C306.546 75.7611 305.407 76.1344 304.549 76.8811C303.727 77.6277 303.317 78.6731 303.317 80.0171C303.317 81.0251 303.634 81.9584 304.269 82.8171C304.941 83.6384 306.21 84.5344 308.077 85.5051L309.757 86.3451C312.37 87.6891 314.274 89.0891 315.469 90.5451C316.663 92.0011 317.261 93.8677 317.261 96.1451C317.261 101.969 313.751 104.918 306.733 104.993Z" fill="#AAAAAA"></path>
<path d="M270.27 104.209V103.649H270.326C271.67 103.649 272.752 103.238 273.574 102.417C274.395 101.596 274.806 100.513 274.806 99.1691V80.8011C274.806 79.3824 274.507 78.2811 273.91 77.4971C273.35 76.7131 272.136 76.3211 270.27 76.3211V75.7611H275.814C277.792 75.7611 279.286 75.5744 280.294 75.2011C281.302 74.7904 282.011 74.2677 282.422 73.6331H282.702L282.758 82.8171C283.243 81.6971 283.859 80.5211 284.606 79.2891C285.39 78.0571 286.36 77.0304 287.518 76.2091C288.712 75.3504 290.131 74.9211 291.774 74.9211C292.334 74.9211 292.931 74.9771 293.566 75.0891C294.2 75.2011 294.872 75.4064 295.582 75.7051L293.398 82.2571C292.054 81.5104 290.878 80.9877 289.87 80.6891C288.899 80.3904 288.04 80.2411 287.294 80.2411C286.024 80.2411 285.072 80.6331 284.438 81.4171C283.84 82.2011 283.318 83.1344 282.87 84.2171V99.1691C282.87 100.513 283.28 101.596 284.102 102.417C284.923 103.238 286.006 103.649 287.35 103.649H287.406V104.209H270.27Z" fill="#AAAAAA"></path>
<path d="M256.341 104.881C253.765 104.881 251.469 104.246 249.453 102.977C247.475 101.708 245.925 99.9531 244.805 97.7131C243.685 95.4357 243.125 92.8411 243.125 89.9291C243.125 86.9424 243.741 84.3291 244.973 82.0891C246.205 79.8491 247.885 78.1131 250.013 76.8811C252.179 75.6117 254.624 74.9771 257.349 74.9771C259.627 74.9771 261.643 75.4251 263.397 76.3211C265.189 77.2171 266.608 78.4864 267.653 80.1291C268.736 81.7344 269.352 83.6011 269.501 85.7291L269.557 86.5691H250.741V86.8491C250.741 90.8064 251.619 93.9797 253.373 96.3691C255.128 98.7211 257.48 99.8971 260.429 99.8971C262.221 99.8971 263.92 99.4678 265.525 98.6091C267.168 97.7131 268.493 96.5184 269.501 95.0251L270.005 95.1931C269.371 97.0971 268.381 98.7771 267.037 100.233C265.693 101.689 264.107 102.828 262.277 103.649C260.448 104.47 258.469 104.881 256.341 104.881ZM250.797 85.7291H262.165C262.165 82.7797 261.68 80.3904 260.709 78.5611C259.776 76.7317 258.451 75.8171 256.733 75.8171C255.091 75.8171 253.728 76.7131 252.645 78.5051C251.563 80.2971 250.947 82.7051 250.797 85.7291Z" fill="#AAAAAA"></path>
<path d="M229.492 105.105L218.348 79.3451C217.975 78.4864 217.471 77.7771 216.836 77.2171C216.239 76.6571 215.399 76.3584 214.316 76.3211V75.7611H229.996V76.3211C228.689 76.4704 227.831 77.0491 227.42 78.0571C227.047 79.0651 227.177 80.3344 227.812 81.8651L233.58 95.3611L239.292 82.2011C239.665 81.3424 239.852 80.5024 239.852 79.6811C239.852 78.7478 239.572 77.9824 239.012 77.3851C238.452 76.7878 237.668 76.4331 236.66 76.3211V75.7611H245.508V76.3211C244.537 76.5451 243.604 77.1051 242.708 78.0011C241.812 78.8971 241.009 80.1291 240.3 81.6971L229.996 105.105H229.492Z" fill="#AAAAAA"></path>
<path d="M200.435 104.209V103.649H200.491C201.835 103.649 202.918 103.238 203.739 102.417C204.56 101.596 204.971 100.513 204.971 99.1691V80.8011C204.971 79.3824 204.672 78.2811 204.075 77.4971C203.515 76.7131 202.302 76.3211 200.435 76.3211V75.7611H206.147C208.051 75.7611 209.507 75.5557 210.515 75.1451C211.448 74.7344 212.102 74.2304 212.475 73.6331H213.035V99.1691C213.035 100.513 213.446 101.596 214.267 102.417C215.088 103.238 216.171 103.649 217.515 103.649H217.571V104.209H200.435ZM208.947 70.1051C207.603 70.1051 206.483 69.6757 205.587 68.8171C204.728 67.9211 204.299 66.8011 204.299 65.4571C204.299 64.1131 204.728 63.0117 205.587 62.1531C206.483 61.2571 207.603 60.8091 208.947 60.8091C210.254 60.8091 211.336 61.2571 212.195 62.1531C213.091 63.0491 213.539 64.1504 213.539 65.4571C213.539 66.7637 213.091 67.8651 212.195 68.7611C211.336 69.6571 210.254 70.1051 208.947 70.1051Z" fill="#AAAAAA"></path>
<path d="M165.051 104.209V103.649H165.107C166.451 103.649 167.533 103.238 168.355 102.417C169.176 101.596 169.587 100.513 169.587 99.1691V80.8011C169.587 79.3824 169.288 78.2811 168.691 77.4971C168.131 76.7131 166.917 76.3211 165.051 76.3211V75.7611H170.595C172.499 75.7611 173.955 75.5557 174.963 75.1451C175.896 74.7344 176.549 74.2304 176.923 73.6331H177.483L177.539 81.4731C178.509 79.5317 179.984 77.9637 181.963 76.7691C183.941 75.5744 186.032 74.9771 188.235 74.9771C190.736 74.9771 192.733 75.7984 194.227 77.4411C195.757 79.0837 196.523 81.2491 196.523 83.9371V99.1691C196.523 100.513 196.933 101.596 197.755 102.417C198.576 103.238 199.659 103.649 201.003 103.649H201.059V104.209H183.979V103.649H184.035C185.379 103.649 186.461 103.238 187.283 102.417C188.104 101.596 188.515 100.513 188.515 99.1691V83.3771C188.515 81.5104 188.141 80.0171 187.395 78.8971C186.685 77.7771 185.733 77.2171 184.539 77.2171C183.381 77.2171 182.168 77.7211 180.899 78.7291C179.667 79.6997 178.584 81.0251 177.651 82.7051V99.1691C177.651 100.513 178.061 101.596 178.883 102.417C179.704 103.238 180.787 103.649 182.131 103.649H182.187V104.209H165.051Z" fill="#AAAAAA"></path>
<path d="M144.909 104.993C141.623 104.993 138.767 104.358 136.341 103.089C133.914 101.82 132.029 100.028 130.685 97.7131C129.378 95.3611 128.725 92.6171 128.725 89.4811V67.2491C128.725 65.9051 128.314 64.8224 127.493 64.0011C126.671 63.1798 125.589 62.7691 124.245 62.7691H124.021V62.2091H142.053V62.7691H141.885C140.541 62.7691 139.458 63.1798 138.637 64.0011C137.815 64.8224 137.405 65.9051 137.405 67.2491V89.4811C137.405 93.4384 138.413 96.5744 140.429 98.8891C142.482 101.166 145.245 102.305 148.717 102.305C152.226 102.305 154.989 101.148 157.005 98.8331C159.021 96.4811 160.029 93.3638 160.029 89.4811V68.0891C160.029 66.4838 159.543 65.2144 158.573 64.2811C157.602 63.3478 156.314 62.8438 154.709 62.7691V62.2091H166.301V62.7691C164.695 62.8438 163.407 63.3478 162.437 64.2811C161.466 65.2144 160.981 66.4838 160.981 68.0891V89.4811C160.981 92.6171 160.327 95.3424 159.021 97.6571C157.751 99.9718 155.903 101.782 153.477 103.089C151.087 104.358 148.231 104.993 144.909 104.993Z" fill="#AAAAAA"></path>
<path fill-rule="evenodd" clip-rule="evenodd" d="M85.3008 7.20904V0.209045H101.301V64.709C101.301 92.5994 78.6912 115.209 50.8008 115.209C24.0869 115.209 2.21765 94.4667 0.420174 68.209H0.300781V0.209045H16.3008V7.20905L43.3008 7.20904V0.209045H59.3008V7.20905L85.3008 7.20904ZM85.3008 64.709V54.8921C83.5011 56.7476 81.572 58.5097 79.525 60.1693C72.7672 65.6483 64.8288 69.9287 56.1941 72.8285C47.5585 75.7286 38.344 77.2091 29.0655 77.2091H18.635C23.6418 90.0838 36.1556 99.209 50.8008 99.209C69.8546 99.209 85.3008 83.7629 85.3008 64.709ZM44.8184 52.6592C41.7702 55.8903 38.3345 58.6921 34.598 60.9937C40.2811 60.5501 45.8451 59.4258 51.1004 57.6609C58.0525 55.3262 64.2766 51.9341 69.4484 47.741C74.6181 43.5496 78.6076 38.6643 81.287 33.4196C82.9786 30.1085 84.1359 26.6799 84.7582 23.209H58.7858C58.2001 27.4631 57.118 31.6382 55.555 35.6378C53.0785 41.9754 49.4374 47.7631 44.8184 52.6592ZM16.3008 51.4259V23.209H42.5715C42.1287 25.4672 41.4868 27.6791 40.6524 29.8144C38.9076 34.2796 36.3612 38.3077 33.1801 41.6797C29.9999 45.0507 26.2499 47.6982 22.1573 49.4951C20.2565 50.3297 18.2961 50.9746 16.3008 51.4259Z" fill="white"></path>
</svg>