<?xml version="1.0" encoding="UTF-8"?>
<svg id="Layer_1" xmlns="http://www.w3.org/2000/svg" version="1.1" viewBox="0 0 56 12">
  <!-- Generator: Adobe Illustrator 29.1.0, SVG Export Plug-In . SVG Version: 2.1.0 Build 142)  -->
  <defs>
    <style>
      .st0 {
        fill: #ffd31a;
      }
    </style>
  </defs>
  <path class="st0" d="M5.1,2c.4-.8,1.5-.8,1.8,0l.5,1.1c.1.3.5.6.8.6h1.2c.9.2,1.2,1.3.6,1.9l-.9.8c-.3.2-.4.6-.3,1l.3,1.2c.2.8-.7,1.5-1.5,1.1l-1.1-.6c-.3-.2-.7-.2-1,0l-1.1.6c-.7.4-1.7-.2-1.5-1.1l.3-1.2c0-.3,0-.7-.3-1l-.9-.8c-.6-.6-.3-1.6.6-1.7h1.2c.4-.2.7-.4.8-.7l.5-1.1Z"/>
  <path class="st0" d="M16.1,2c.4-.8,1.5-.8,1.8,0l.5,1.1c.1.3.5.6.8.6h1.2c.9.2,1.2,1.3.6,1.9l-.9.8c-.3.2-.4.6-.3,1l.3,1.2c.2.8-.7,1.5-1.5,1.1l-1.1-.6c-.3-.2-.7-.2-1,0l-1.1.6c-.8.4-1.7-.2-1.5-1.1l.3-1.2c0-.3,0-.7-.3-1l-.9-.8c-.6-.6-.3-1.6.6-1.7h1.2c.4-.2.7-.4.8-.7l.5-1.1Z"/>
  <path class="st0" d="M27.1,2c.4-.8,1.5-.8,1.8,0l.5,1.1c.1.3.5.6.8.6h1.2c.9.2,1.2,1.3.6,1.9l-.9.8c-.3.2-.4.6-.3,1l.3,1.2c.2.8-.7,1.5-1.5,1.1l-1.1-.6c-.3-.2-.7-.2-1,0l-1.1.6c-.8.4-1.7-.2-1.5-1.1l.3-1.2c0-.3,0-.7-.3-1l-.9-.8c-.6-.6-.3-1.6.6-1.7h1.2c.4-.2.7-.4.8-.7l.5-1.1Z"/>
  <path class="st0" d="M38.1,2c.4-.8,1.5-.8,1.8,0l.5,1.1c.1.3.5.6.8.6h1.2c.9.2,1.2,1.3.6,1.9l-.9.8c-.3.2-.4.6-.3,1l.3,1.2c.2.8-.7,1.5-1.5,1.1l-1.1-.6c-.3-.2-.7-.2-1,0l-1.1.6c-.8.4-1.7-.2-1.5-1.1l.3-1.2c0-.3,0-.7-.3-1l-.9-.8c-.6-.6-.3-1.6.6-1.7h1.2c.4-.2.7-.4.8-.7l.5-1.1Z"/>
  <path class="st0" d="M49.1,2c.4-.8,1.5-.8,1.8,0l.5,1.1c.1.3.5.6.8.6h1.2c.9.2,1.2,1.3.6,1.9l-.9.8c-.3.2-.4.6-.3,1l.3,1.2c.2.8-.7,1.5-1.5,1.1l-1.1-.6c-.3-.2-.7-.2-1,0l-1.1.6c-.8.4-1.7-.2-1.5-1.1l.3-1.2c0-.3,0-.7-.3-1l-.9-.8c-.6-.6-.3-1.6.6-1.7h1.2c.4-.2.7-.4.8-.7l.5-1.1Z"/>
</svg>