<?xml version="1.0" encoding="UTF-8"?>
<svg id="Layer_1" xmlns="http://www.w3.org/2000/svg" version="1.1" viewBox="0 0 245 41">
  <!-- Generator: Adobe Illustrator 29.1.0, SVG Export Plug-In . SVG Version: 2.1.0 Build 142)  -->
  <defs>
    <style>
      .st0 {
        fill: #fff;
      }
    </style>
  </defs>
  <path class="st0" d="M214.5,32.9V12.5h5.3v3.6h.3c.4-1.2,1.1-2.2,2.1-2.8s2.2-1,3.6-1,2.6.4,3.6,1.1c1,.7,1.6,1.6,2,2.8h.2c.4-1.2,1.2-2.1,2.3-2.8,1.1-.7,2.4-1.1,3.9-1.1s3.4.6,4.6,1.8c1.2,1.2,1.8,2.9,1.8,5.1v13.7h-5.7v-12.6c0-1.1-.3-2-.9-2.6-.6-.6-1.3-.8-2.2-.8s-1.8.3-2.4,1c-.6.6-.9,1.5-.9,2.6v12.5h-5.5v-12.7c0-1-.3-1.8-.9-2.4-.6-.6-1.3-.9-2.2-.9s-1.2.2-1.7.5c-.5.3-.9.8-1.2,1.3-.3.5-.4,1.2-.4,2v12.2h-5.6Z"/>
  <path class="st0" d="M206.4,24.3v-11.7h5.6v20.4h-5.4v-3.7h-.2c-.5,1.2-1.2,2.1-2.3,2.9-1.1.7-2.4,1.1-3.9,1.1-1.4,0-2.6-.3-3.6-.9-1-.6-1.8-1.5-2.4-2.6-.6-1.1-.9-2.5-.9-4.1v-13h5.6v12c0,1.2.3,2.1,1,2.8.6.7,1.5,1,2.6,1,.7,0,1.3-.2,1.9-.5.6-.3,1.1-.8,1.4-1.4.4-.6.6-1.4.6-2.3Z"/>
  <path class="st0" d="M191.4,18.3l-5.2.3c-.1-.6-.5-1.2-1.1-1.7-.6-.5-1.4-.7-2.4-.7s-1.6.2-2.2.5c-.6.4-.9.9-.9,1.5s.2.9.6,1.3c.4.3,1.1.6,2,.8l3.7.7c2,.4,3.5,1.1,4.4,2,1,.9,1.5,2.1,1.5,3.6s-.4,2.5-1.2,3.5c-.8,1-1.9,1.8-3.2,2.4-1.4.6-2.9.8-4.7.8-2.7,0-4.9-.6-6.5-1.7-1.6-1.1-2.5-2.7-2.8-4.6l5.5-.3c.2.8.6,1.5,1.2,1.9.6.4,1.5.6,2.5.6s1.8-.2,2.4-.6c.6-.4.9-.9.9-1.5,0-1-.9-1.7-2.6-2l-3.5-.7c-2-.4-3.5-1.1-4.4-2.1-1-1-1.5-2.2-1.5-3.7s.4-2.4,1.1-3.4c.7-.9,1.7-1.7,3-2.2,1.3-.5,2.8-.8,4.6-.8,2.6,0,4.6.5,6.1,1.6,1.5,1.1,2.3,2.6,2.6,4.4Z"/>
  <path class="st0" d="M153.1,40.6V12.5h5.6v3.5h.3c.3-.6.6-1.1,1.1-1.7.5-.6,1.1-1,1.9-1.4.8-.4,1.7-.6,2.8-.6s2.9.4,4.1,1.2c1.3.8,2.3,1.9,3,3.5.8,1.6,1.1,3.5,1.1,5.8s-.4,4.2-1.1,5.8c-.7,1.6-1.7,2.7-3,3.5-1.2.8-2.6,1.2-4.2,1.2s-2-.2-2.8-.5c-.8-.4-1.4-.8-1.9-1.4-.5-.6-.8-1.1-1.1-1.7h-.2v10.9h-5.6ZM162.9,28.8c.9,0,1.7-.3,2.3-.8.6-.5,1.1-1.2,1.4-2.1.3-.9.5-2,.5-3.1s-.2-2.2-.5-3.1c-.3-.9-.8-1.6-1.4-2.1s-1.4-.8-2.4-.8-1.7.2-2.3.7c-.6.5-1.1,1.2-1.5,2.1-.3.9-.5,1.9-.5,3.2s.2,2.3.5,3.2c.3.9.8,1.6,1.5,2.1.6.5,1.4.7,2.3.7Z"/>
  <path class="st0" d="M145,32.9V12.5h5.6v20.4h-5.6ZM147.9,9.9c-.8,0-1.6-.3-2.2-.8-.6-.6-.9-1.2-.9-2s.3-1.5.9-2c.6-.6,1.3-.8,2.2-.8s1.6.3,2.2.8c.6.5.9,1.2.9,2s-.3,1.5-.9,2c-.6.6-1.3.8-2.2.8Z"/>
  <path class="st0" d="M133.4,33.3c-2.1,0-3.8-.4-5.3-1.3-1.5-.9-2.7-2.1-3.5-3.7-.8-1.6-1.2-3.4-1.2-5.5s.4-4,1.2-5.5c.8-1.6,2-2.8,3.5-3.7,1.5-.9,3.3-1.3,5.3-1.3s3.9.4,5.3,1.3c1.5.9,2.7,2.1,3.5,3.7.8,1.6,1.2,3.4,1.2,5.5s-.4,3.9-1.2,5.5c-.8,1.6-2,2.8-3.5,3.7-1.5.9-3.3,1.3-5.3,1.3ZM133.5,28.9c.9,0,1.7-.3,2.4-.8.6-.5,1.1-1.3,1.4-2.2.3-.9.5-2,.5-3.2s-.2-2.2-.5-3.2c-.3-.9-.8-1.6-1.4-2.2-.6-.5-1.4-.8-2.4-.8s-1.7.3-2.4.8c-.6.5-1.1,1.2-1.4,2.2-.3.9-.5,2-.5,3.2s.2,2.2.5,3.2c.3.9.8,1.7,1.4,2.2.6.5,1.4.8,2.4.8Z"/>
  <path class="st0" d="M111.9,41c-2.8,0-4.9-.5-6.5-1.6-1.6-1.1-2.5-2.4-2.8-4.1l5.2-.7c.2.4.4.8.7,1.2.3.4.8.6,1.4.8.6.2,1.3.3,2.1.3,1.2,0,2.2-.3,3-.9.8-.6,1.2-1.6,1.2-3v-3.7h-.2c-.2.6-.6,1.1-1.1,1.6s-1.1.9-1.9,1.2c-.8.3-1.7.5-2.8.5-1.5,0-2.9-.4-4.2-1.1-1.2-.7-2.2-1.8-3-3.3-.7-1.5-1.1-3.3-1.1-5.6s.4-4.3,1.1-5.8c.8-1.5,1.8-2.7,3-3.5,1.3-.8,2.6-1.2,4.1-1.2s2.1.2,2.9.6c.8.4,1.4.9,1.9,1.4.5.6.9,1.1,1.1,1.7h.2v-3.5h5.6v20.6c0,1.7-.4,3.2-1.3,4.3-.9,1.2-2,2-3.5,2.6-1.5.6-3.2.9-5.2.9ZM112,28.4c1.4,0,2.4-.5,3.2-1.5.8-1,1.1-2.4,1.1-4.2s-.2-2.2-.5-3.1c-.3-.9-.8-1.6-1.4-2.1-.6-.5-1.4-.7-2.3-.7s-1.7.3-2.4.8c-.6.5-1.1,1.2-1.4,2.1-.3.9-.5,1.9-.5,3.1s.2,2.2.5,3c.3.9.8,1.5,1.4,2,.6.5,1.4.7,2.4.7Z"/>
  <path class="st0" d="M91.2,33.3c-2.1,0-3.8-.4-5.3-1.3-1.5-.9-2.7-2.1-3.5-3.7-.8-1.6-1.2-3.4-1.2-5.5s.4-4,1.2-5.5c.8-1.6,2-2.8,3.5-3.7,1.5-.9,3.3-1.3,5.3-1.3s3.9.4,5.3,1.3c1.5.9,2.7,2.1,3.5,3.7.8,1.6,1.2,3.4,1.2,5.5s-.4,3.9-1.2,5.5c-.8,1.6-2,2.8-3.5,3.7-1.5.9-3.3,1.3-5.3,1.3ZM91.2,28.9c.9,0,1.7-.3,2.4-.8.6-.5,1.1-1.3,1.4-2.2.3-.9.5-2,.5-3.2s-.2-2.2-.5-3.2c-.3-.9-.8-1.6-1.4-2.2-.6-.5-1.4-.8-2.4-.8s-1.7.3-2.4.8c-.6.5-1.1,1.2-1.4,2.2-.3.9-.5,2-.5,3.2s.2,2.2.5,3.2c.3.9.8,1.7,1.4,2.2.6.5,1.4.8,2.4.8Z"/>
  <path class="st0" d="M63,32.9V5.7h5.7v22.5h11.7v4.7h-17.4Z"/>
  <path class="st0" d="M37.4,40c6.4-.1,11.6-5.4,11.6-11.9s-1.2-6.2-3.5-8.4L25.8,0v12.3c0,2.1.8,4,2.3,5.5l4.6,4.6h0s7.8,7.8,7.8,7.8c.3.3.3.7,0,.9-.3.3-.7.3-.9,0l-2.7-2.7H12.1l-2.7,2.7c-.3.3-.7.3-.9,0-.3-.3-.3-.7,0-.9l7.8-7.8h0s4.6-4.6,4.6-4.6c1.5-1.5,2.3-3.4,2.3-5.5V0L3.5,19.8c-2.2,2.2-3.5,5.2-3.5,8.4,0,6.5,5.2,11.7,11.6,11.9h25.8Z"/>
</svg>